<svg version="1.1" id="Layer_1" xmlns="http://www.w3.org/2000/svg" xmlns:xlink="http://www.w3.org/1999/xlink" x="0px" y="0px"
	 width="100%" viewBox="0 0 320 304" enable-background="new 0 0 320 304" xml:space="preserve">
<path fill="#000000" opacity="1.000000" stroke="none" 
	d="
M289.527344,204.371277 
	C269.984131,250.901581 235.159760,278.081085 186.174026,286.281219 
	C139.927979,294.022705 99.236237,281.178894 65.884850,248.125580 
	C39.109329,221.589355 27.031439,188.636215 29.935104,151.064713 
	C32.450356,118.519066 46.604763,91.091339 70.750099,69.022667 
	C89.257988,52.106586 110.890381,41.013672 135.515442,36.435123 
	C179.660568,28.227205 219.487396,37.762745 253.961731,67.076828 
	C274.940247,84.915184 288.375519,107.503189 294.466919,134.354385 
	C299.835693,158.020172 298.083160,181.258728 289.527344,204.371277 
M225.055954,268.566498 
	C226.213516,267.908112 227.385406,267.273590 228.526581,266.587952 
	C271.674500,240.662811 294.618469,203.352341 291.651428,152.212769 
	C289.557312,116.118874 272.472137,87.521286 244.143204,65.811211 
	C214.560089,43.139977 180.828888,34.996887 143.991974,40.263683 
	C110.056931,45.115574 82.072937,60.829201 60.557938,87.590843 
	C43.367908,108.972832 34.725506,133.732635 34.591171,160.990295 
	C34.498573,179.779343 38.712044,197.969681 47.904537,214.674988 
	C73.141235,260.537018 112.987267,282.243652 164.305374,283.394287 
	C185.269012,283.864319 205.559265,278.707764 225.055954,268.566498 
z"/>
<path fill="#000000" opacity="1.000000" stroke="none" 
	d="
M67.451607,177.980316 
	C73.876213,169.004761 82.348137,166.257080 92.790901,167.586502 
	C97.853508,168.231003 103.066048,167.697830 108.210709,167.697830 
	C108.247948,167.226273 108.285187,166.754715 108.322426,166.283157 
	C106.080849,166.283157 103.839272,166.281754 101.597694,166.283447 
	C96.602112,166.287247 91.605949,166.343002 86.611076,166.285904 
	C78.343056,166.191376 71.392014,159.417496 70.989510,151.143219 
	C70.612282,143.388489 76.606041,135.627274 84.597519,135.321594 
	C99.227036,134.762009 113.891220,135.100754 128.540924,135.107971 
	C129.131943,135.108261 129.722733,135.548645 131.205673,136.139252 
	C124.227829,142.517609 120.317734,151.740585 108.664490,150.358475 
	C101.688438,149.531097 94.534149,150.206619 87.476433,151.075119 
	C94.070885,151.075119 100.666832,150.987762 107.259377,151.100235 
	C113.576172,151.207993 118.979050,153.218307 122.530464,158.910706 
	C128.414810,168.342484 122.381050,181.744934 111.259415,182.111282 
	C91.652832,182.757126 72.011795,182.360809 52.385170,182.371506 
	C51.930668,182.371750 51.475975,182.023941 50.590218,181.662567 
	C49.624863,163.384308 49.885303,144.986923 50.842010,126.527153 
	C58.905495,128.020477 65.297333,135.322983 65.298950,142.728104 
	C65.301315,153.551849 65.240379,164.376221 65.371246,175.198334 
	C65.383316,176.196060 63.840359,178.952515 67.451607,177.980316 
z"/>
<path fill="#000000" opacity="1.000000" stroke="none" 
	d="
M150.175476,182.404144 
	C136.374481,181.845596 126.391075,172.126511 126.557678,159.872574 
	C126.760826,144.930161 136.145889,135.131454 150.536224,134.992828 
	C160.522186,134.896622 170.509888,134.952606 180.496613,134.990097 
	C182.105194,134.996140 183.852814,134.599594 185.216690,135.930099 
	C182.201004,143.595154 172.752975,150.215500 164.864044,150.217056 
	C160.037048,150.218002 155.209198,150.161301 150.383286,150.233658 
	C144.903030,150.315796 141.581100,153.248108 141.327576,158.073898 
	C141.046585,163.422470 144.361130,167.278564 149.938919,167.594009 
	C154.397141,167.846146 158.881012,167.644928 163.353485,167.644928 
	C163.372803,167.195724 163.392120,166.746506 163.411438,166.297302 
	C160.123688,166.297302 156.830978,166.184113 153.549576,166.328461 
	C150.123917,166.479141 148.878845,164.990295 148.775146,161.603210 
	C148.452469,151.062347 148.356110,151.062897 158.902786,151.073517 
	C164.561081,151.079208 170.219376,151.090973 175.877655,151.107498 
	C178.952271,151.116470 180.293930,152.513153 180.225113,155.734619 
	C180.072311,162.888138 180.036270,170.052704 180.269058,177.202454 
	C180.395218,181.077011 179.046906,182.574966 175.117340,182.479889 
	C166.966034,182.282654 158.806839,182.411331 150.175476,182.404144 
z"/>
<path fill="#000000" opacity="1.000000" stroke="none" 
	d="
M215.312408,166.562805 
	C218.879456,164.464401 219.871170,161.570480 219.777740,157.929794 
	C219.619858,151.778183 219.852249,145.616699 219.703491,139.464615 
	C219.624573,136.201889 221.066147,135.147720 224.142181,134.955978 
	C234.822037,134.290298 235.117508,134.482040 235.150833,145.053329 
	C235.164993,149.545334 235.175568,154.037735 235.133026,158.529434 
	C235.005371,172.012283 224.924774,182.028915 211.506699,182.440521 
	C202.426682,182.719086 193.916428,182.045853 187.418121,174.475449 
	C181.250824,167.290649 179.568985,158.646713 181.717422,150.162598 
	C183.307617,143.882996 189.718079,140.088776 194.645233,135.655594 
	C197.018768,138.027206 196.108856,140.477402 196.177582,142.664246 
	C196.329056,147.484497 196.174698,152.313492 196.256577,157.137024 
	C196.378021,164.291702 199.587418,167.560959 206.625336,167.652832 
	C209.423477,167.689346 212.304443,168.133713 215.312408,166.562805 
z"/>
<path fill="#000000" opacity="1.000000" stroke="none" 
	d="
M247.235168,182.431122 
	C236.500580,182.466644 236.523010,182.466537 236.472961,172.384369 
	C236.418549,161.424988 236.385788,150.464615 236.193069,139.507339 
	C236.136292,136.279297 237.464386,135.140274 240.582443,134.939789 
	C251.322144,134.249207 251.312225,134.170410 251.303680,145.112335 
	C251.298859,151.271820 251.402023,157.433075 251.280716,163.590057 
	C251.221725,166.584839 252.372742,167.899170 255.388092,167.698837 
	C257.210938,167.577728 259.116364,168.004959 260.869263,167.636627 
	C272.948181,165.098541 278.698914,173.674835 286.027252,181.859283 
	C272.673187,183.537552 260.152924,181.900269 247.235168,182.431122 
z"/>
<path fill="#000000" opacity="1.000000" stroke="none" 
	d="
M155.507339,198.666092 
	C153.247040,197.477570 151.494949,197.995758 149.493134,198.618271 
	C145.842346,199.753510 144.626038,198.426910 145.402344,194.588547 
	C145.560974,193.804199 145.064453,193.404800 144.906479,192.820358 
	C143.849960,188.911499 146.298309,185.895477 149.554825,187.649002 
	C152.451126,189.208527 154.275024,187.085571 156.530640,187.345917 
	C158.823242,187.610519 160.947830,189.383926 163.117935,187.743668 
	C165.586670,190.075714 162.790344,193.763794 165.969223,195.678772 
	C169.591888,194.215973 165.904709,189.266098 169.587860,187.920990 
	C172.268600,189.109818 170.590347,191.915939 171.774445,193.611145 
	C172.085495,193.520401 172.579575,193.505386 172.635315,193.341385 
	C174.827011,186.892960 177.755020,185.439896 184.922577,187.861664 
	C186.571442,188.418777 187.658478,189.035782 189.283737,187.873260 
	C191.002380,186.643997 192.938278,187.055023 194.124786,188.777161 
	C195.873505,191.315308 195.697571,194.194702 194.462799,196.857361 
	C193.599030,198.719955 191.749680,199.441208 189.834763,198.572800 
	C188.274109,197.865051 186.894455,197.986816 185.247192,198.018173 
	C181.411057,198.091217 184.014343,193.841003 182.093994,192.307373 
	C180.110016,193.964172 183.577103,198.188934 179.830551,198.311523 
	C176.215469,198.429840 178.439224,194.617004 177.153610,192.321701 
	C176.085541,194.940567 176.499405,198.930862 172.680099,198.623825 
	C169.661209,198.381134 166.741089,198.906509 163.792984,198.818619 
	C160.005554,198.705704 160.907669,195.501343 160.586212,192.695908 
	C159.865311,195.777237 160.033569,199.099503 155.507339,198.666092 
z"/>
<path fill="#000000" opacity="1.000000" stroke="none" 
	d="
M110.369804,197.054550 
	C109.677544,194.174393 110.385910,191.327408 108.194756,189.514740 
	C109.004608,187.088409 110.770271,186.962662 112.395119,187.192535 
	C119.064095,188.135956 125.736679,188.294205 132.429199,187.621780 
	C134.827484,187.380798 134.688766,189.643845 135.729248,190.824890 
	C137.505676,190.666367 136.683594,187.942017 139.173752,187.911011 
	C140.996841,191.178955 140.688446,194.598450 139.547394,197.942612 
	C137.295242,198.651443 137.041885,196.887848 136.267975,195.942947 
	C134.882645,196.664581 134.537994,198.279663 132.580627,198.242767 
	C128.528137,198.166397 124.454781,198.595306 120.407509,198.994049 
	C115.281769,199.499084 115.627167,195.741440 115.449806,192.479874 
	C112.464691,193.048386 116.757507,200.274002 110.369804,197.054550 
z"/>
<path fill="#000000" opacity="1.000000" stroke="none" 
	d="
M195.848541,196.317230 
	C195.792084,193.295486 195.792084,190.667328 195.792084,188.301041 
	C198.652817,186.524002 200.455566,192.720779 202.545090,188.178421 
	C205.422455,190.036942 203.462494,192.980270 206.050781,196.069061 
	C204.826645,190.953522 204.058655,187.063049 209.918411,187.655838 
	C210.407669,187.705353 211.095154,187.647293 211.343002,187.936752 
	C213.261520,190.177597 211.751724,193.097046 212.787750,195.705673 
	C213.352234,197.127014 210.952377,199.023529 209.013168,198.796249 
	C206.284576,198.476440 202.842590,199.483414 200.975266,197.375885 
	C199.066849,195.221939 196.995316,200.378250 195.848541,196.317230 
z"/>
</svg>